<svg xmlns="http://www.w3.org/2000/svg" xmlns:xlink="http://www.w3.org/1999/xlink" width="500" zoomAndPan="magnify" viewBox="0 0 375 374.999991" height="500" preserveAspectRatio="xMidYMid meet" version="1.0"><defs><g/><clipPath id="cbe0f8f1f5"><path d="M 35 138.972656 L 340 138.972656 L 340 328 L 35 328 Z M 35 138.972656 " clip-rule="nonzero"/></clipPath><clipPath id="8d6bc8cef1"><path d="M 29.128906 138.972656 L 345.628906 138.972656 L 345.628906 333.019531 L 29.128906 333.019531 Z M 29.128906 138.972656 " clip-rule="nonzero"/></clipPath><clipPath id="5e8ef7772c"><path d="M 36.15625 138.972656 L 337.976562 138.972656 L 337.976562 228.460938 L 36.15625 228.460938 Z M 36.15625 138.972656 " clip-rule="nonzero"/></clipPath><clipPath id="6a798b03fb"><path d="M 124.058594 41.921875 L 345 41.921875 L 345 140.171875 L 124.058594 140.171875 Z M 124.058594 41.921875 " clip-rule="nonzero"/></clipPath><clipPath id="54537a8476"><path d="M 29.128906 70.105469 L 156.628906 70.105469 L 156.628906 139.855469 L 29.128906 139.855469 Z M 29.128906 70.105469 " clip-rule="nonzero"/></clipPath></defs><g clip-path="url(#cbe0f8f1f5)"><path fill="#b7783e" d="M 340 227.730469 L 340 83.59375 C 340 73.71875 334.730469 64.589844 326.179688 59.652344 L 201.351562 -12.414062 C 192.792969 -17.355469 182.253906 -17.355469 173.703125 -12.414062 L 48.875 59.652344 C 40.316406 64.589844 35.050781 73.71875 35.050781 83.59375 L 35.050781 227.730469 C 35.050781 237.609375 40.324219 246.734375 48.875 251.675781 L 173.703125 323.742188 C 182.261719 328.679688 192.800781 328.679688 201.351562 323.742188 L 326.171875 251.675781 C 334.730469 246.734375 340 237.609375 340 227.730469 Z M 340 227.730469 " fill-opacity="1" fill-rule="nonzero"/></g><g clip-path="url(#8d6bc8cef1)"><path fill="#04343f" d="M 187.527344 333.066406 C 181.773438 333.066406 176.015625 331.582031 170.886719 328.625 L 46.058594 256.554688 C 35.796875 250.632812 29.417969 239.582031 29.417969 227.730469 L 29.417969 83.59375 C 29.417969 71.746094 35.796875 60.695312 46.058594 54.769531 L 170.886719 -17.296875 C 181.15625 -23.222656 193.90625 -23.222656 204.167969 -17.296875 L 328.996094 54.769531 C 339.257812 60.695312 345.636719 71.746094 345.636719 83.59375 L 345.636719 227.730469 C 345.636719 239.582031 339.257812 250.632812 328.996094 256.554688 L 204.167969 328.625 C 199.035156 331.582031 193.28125 333.066406 187.527344 333.066406 Z M 187.527344 -10.476562 C 183.722656 -10.476562 179.914062 -9.5 176.519531 -7.539062 L 51.691406 64.527344 C 44.902344 68.445312 40.6875 75.753906 40.6875 83.59375 L 40.6875 227.730469 C 40.6875 235.574219 44.902344 242.875 51.691406 246.800781 L 176.519531 318.867188 C 183.3125 322.785156 191.742188 322.785156 198.535156 318.867188 L 323.359375 246.800781 C 330.152344 242.882812 334.367188 235.574219 334.367188 227.730469 L 334.367188 83.59375 C 334.367188 75.753906 330.152344 68.453125 323.359375 64.527344 L 198.535156 -7.535156 C 195.140625 -9.5 191.332031 -10.476562 187.527344 -10.476562 Z M 187.527344 -10.476562 " fill-opacity="1" fill-rule="nonzero"/></g><g clip-path="url(#5e8ef7772c)"><path fill="#04343f" d="M 36.15625 138.972656 L 337.824219 138.972656 L 337.824219 228.460938 L 36.15625 228.460938 Z M 36.15625 138.972656 " fill-opacity="1" fill-rule="nonzero"/></g><g clip-path="url(#6a798b03fb)"><path fill="#04343f" d="M 345 139.738281 L 315.921875 110.515625 L 303.71875 110.515625 L 277.855469 84.207031 L 272.160156 89.617188 L 224.882812 41.980469 L 201.210938 65.503906 L 189.300781 53.304688 L 141.8125 101.160156 L 132.019531 91.804688 L 106.59375 116.941406 L 100.894531 111.535156 L 72.253906 139.886719 L 125.589844 139.886719 L 148.242188 122.9375 L 142.105469 115.773438 L 149.265625 110.074219 L 144.148438 103.355469 L 188.714844 60.539062 L 188.421875 70.328125 L 181.554688 77.925781 L 183.75 88.011719 L 171.328125 91.957031 L 164.894531 100.574219 L 167.089844 125.125 L 158.320312 139.738281 L 212.390625 140.03125 L 223.496094 127.316406 L 244.394531 119.425781 L 247.753906 110.953125 L 240.886719 109.050781 L 238.546875 100.574219 L 258.714844 103.0625 L 274.933594 93.414062 L 276.976562 99.550781 L 263.242188 115.917969 L 251.992188 119.425781 L 251.847656 133.597656 L 262.660156 139.886719 Z M 345 139.738281 " fill-opacity="1" fill-rule="evenodd"/></g><path fill="#04343f" d="M 221.707031 49.945312 L 223.164062 54.179688 L 216.882812 61.050781 L 217.46875 76.242188 L 210.164062 83.40625 L 207.089844 96.269531 L 210.601562 101.671875 L 202.558594 109.855469 L 202.417969 120.960938 L 195.691406 120.960938 L 186.195312 127.535156 L 179.476562 127.390625 L 191.453125 115.265625 L 178.890625 113.65625 L 186.929688 104.15625 L 196.425781 79.753906 L 205.632812 74.054688 L 205.777344 66.015625 Z M 221.707031 49.945312 " fill-opacity="1" fill-rule="evenodd"/><g clip-path="url(#54537a8476)"><path fill="#04343f" d="M 223.601562 139.847656 L 202.867188 119.011719 L 194.167969 119.011719 L 175.726562 100.253906 L 171.664062 104.109375 L 137.953125 70.144531 L 121.078125 86.917969 L 112.585938 78.21875 L 78.726562 112.339844 L 71.742188 105.671875 L 53.613281 123.59375 L 49.550781 119.738281 L 29.128906 139.953125 L 67.160156 139.953125 L 83.3125 127.867188 L 78.933594 122.761719 L 84.039062 118.695312 L 80.390625 113.90625 L 112.167969 83.375 L 111.960938 90.359375 L 107.0625 95.773438 L 108.625 102.964844 L 99.769531 105.777344 L 95.183594 111.921875 L 96.75 129.425781 L 90.496094 139.847656 L 129.050781 140.054688 L 136.96875 130.992188 L 151.867188 125.363281 L 154.261719 119.320312 L 149.367188 117.964844 L 147.699219 111.921875 L 162.078125 113.695312 L 173.640625 106.816406 L 175.097656 111.195312 L 165.304688 122.863281 L 157.285156 125.363281 L 157.183594 135.46875 L 164.890625 139.953125 Z M 223.601562 139.847656 " fill-opacity="1" fill-rule="evenodd"/></g><path fill="#04343f" d="M 135.691406 75.824219 L 136.730469 78.84375 L 132.25 83.742188 L 132.667969 94.574219 L 127.460938 99.679688 L 125.269531 108.851562 L 127.773438 112.703125 L 122.039062 118.539062 L 121.9375 126.457031 L 117.144531 126.457031 L 110.371094 131.144531 L 105.582031 131.042969 L 114.121094 122.394531 L 105.164062 121.25 L 110.894531 114.476562 L 117.667969 97.078125 L 124.230469 93.015625 L 124.332031 87.28125 Z M 135.691406 75.824219 " fill-opacity="1" fill-rule="evenodd"/><g fill="#efe7d3" fill-opacity="1"><g transform="translate(52.552575, 187.161535)"><g><path d="M 12.546875 -23.4375 C 14.585938 -23.4375 16.507812 -23.117188 18.3125 -22.484375 L 17.09375 -16.8125 L 16.640625 -16.53125 C 16.015625 -16.863281 15.296875 -17.128906 14.484375 -17.328125 C 13.679688 -17.535156 12.9375 -17.640625 12.25 -17.640625 C 10.800781 -17.640625 9.753906 -17.21875 9.109375 -16.375 C 8.472656 -15.53125 8.15625 -14.117188 8.15625 -12.140625 C 8.15625 -9.835938 8.519531 -8.15625 9.25 -7.09375 C 9.988281 -6.039062 11.144531 -5.515625 12.71875 -5.515625 C 13.382812 -5.515625 14.125 -5.578125 14.9375 -5.703125 C 15.757812 -5.835938 16.476562 -6.023438 17.09375 -6.265625 L 17.671875 -5.90625 L 17.09375 -0.28125 C 15.675781 0.164062 14.023438 0.390625 12.140625 0.390625 C 8.316406 0.390625 5.4375 -0.601562 3.5 -2.59375 C 1.570312 -4.59375 0.609375 -7.503906 0.609375 -11.328125 C 0.609375 -15.171875 1.644531 -18.148438 3.71875 -20.265625 C 5.800781 -22.378906 8.742188 -23.4375 12.546875 -23.4375 Z M 12.546875 -23.4375 "/></g></g></g><g fill="#efe7d3" fill-opacity="1"><g transform="translate(72.645661, 187.161535)"><g><path d="M 21.984375 0 L 14.75 0 L 14.109375 -3.8125 L 14.078125 -3.921875 L 10.578125 -3.984375 L 7.65625 -3.84375 L 7.046875 0 L 0.078125 0 L 7.046875 -23.046875 L 15.671875 -23.046875 Z M 13 -9.125 L 11.4375 -16.671875 L 11.015625 -16.671875 L 9.015625 -9.125 L 11.015625 -9.078125 Z M 13 -9.125 "/></g></g></g><g fill="#efe7d3" fill-opacity="1"><g transform="translate(96.764366, 187.161535)"><g><path d="M 17.3125 -9.078125 C 19.019531 -6.421875 20.726562 -3.953125 22.4375 -1.671875 L 22.34375 -0.890625 C 19.914062 -0.148438 17.523438 0.285156 15.171875 0.421875 L 14.5 -0.140625 L 14.078125 -1.03125 C 13.878906 -1.414062 13.492188 -2.21875 12.921875 -3.4375 C 12.359375 -4.65625 11.863281 -5.800781 11.4375 -6.875 L 9.046875 -6.875 L 9.296875 0 L 2.140625 0 L 2.5 -6.765625 L 2.140625 -23.046875 L 13.078125 -23.078125 C 15.660156 -23.078125 17.648438 -22.46875 19.046875 -21.25 C 20.453125 -20.03125 21.15625 -18.265625 21.15625 -15.953125 C 21.15625 -14.597656 20.816406 -13.328125 20.140625 -12.140625 C 19.460938 -10.953125 18.519531 -9.929688 17.3125 -9.078125 Z M 13.640625 -15.25 C 13.640625 -16.195312 13.394531 -16.898438 12.90625 -17.359375 C 12.425781 -17.828125 11.640625 -18.085938 10.546875 -18.140625 L 9.265625 -18.03125 L 9.125 -12.078125 L 11.71875 -11.9375 C 12.382812 -12.238281 12.867188 -12.648438 13.171875 -13.171875 C 13.484375 -13.703125 13.640625 -14.394531 13.640625 -15.25 Z M 13.640625 -15.25 "/></g></g></g><g fill="#efe7d3" fill-opacity="1"><g transform="translate(121.025559, 187.161535)"><g><path d="M 13.078125 -23.078125 C 15.660156 -23.078125 17.644531 -22.441406 19.03125 -21.171875 C 20.425781 -19.898438 21.125 -18.09375 21.125 -15.75 C 21.125 -13.914062 20.695312 -12.300781 19.84375 -10.90625 C 18.988281 -9.519531 17.773438 -8.441406 16.203125 -7.671875 C 14.640625 -6.898438 12.835938 -6.515625 10.796875 -6.515625 L 9.046875 -6.515625 L 9.296875 0 L 2.140625 0 L 2.5 -6.765625 L 2.140625 -23.046875 Z M 11.796875 -11.5 C 12.429688 -11.863281 12.894531 -12.320312 13.1875 -12.875 C 13.488281 -13.4375 13.640625 -14.15625 13.640625 -15.03125 C 13.640625 -16.070312 13.390625 -16.835938 12.890625 -17.328125 C 12.390625 -17.816406 11.609375 -18.085938 10.546875 -18.140625 L 9.265625 -18.03125 L 9.125 -11.65625 Z M 11.796875 -11.5 "/></g></g></g><g fill="#efe7d3" fill-opacity="1"><g transform="translate(143.933013, 187.161535)"><g><path d="M 21.984375 0 L 14.75 0 L 14.109375 -3.8125 L 14.078125 -3.921875 L 10.578125 -3.984375 L 7.65625 -3.84375 L 7.046875 0 L 0.078125 0 L 7.046875 -23.046875 L 15.671875 -23.046875 Z M 13 -9.125 L 11.4375 -16.671875 L 11.015625 -16.671875 L 9.015625 -9.125 L 11.015625 -9.078125 Z M 13 -9.125 "/></g></g></g><g fill="#efe7d3" fill-opacity="1"><g transform="translate(168.051721, 187.161535)"><g><path d="M 18.28125 -22.546875 L 17.890625 -17.34375 L 13.1875 -17.5625 L 12.75 -17.5625 L 12.578125 -7.484375 L 12.859375 0 L 5.734375 0 L 6.09375 -6.765625 L 5.90625 -17.5625 L 5.453125 -17.5625 L 0.71875 -17.34375 L 0.28125 -17.84375 L 0.671875 -23.046875 L 17.890625 -23.046875 Z M 18.28125 -22.546875 "/></g></g></g><g fill="#efe7d3" fill-opacity="1"><g transform="translate(188.322937, 187.161535)"><g><path d="M 23.078125 -7.484375 L 23.375 0 L 16.203125 0 L 16.5625 -6.765625 L 16.53125 -8.546875 L 12.6875 -8.625 L 9.375 -8.515625 L 9.328125 -7.484375 L 9.625 0 L 2.453125 0 L 2.8125 -6.765625 L 2.453125 -23.046875 L 9.71875 -23.046875 L 9.515625 -14.328125 L 13.109375 -14.25 L 16.390625 -14.328125 L 16.203125 -23.046875 L 23.484375 -23.046875 Z M 23.078125 -7.484375 "/></g></g></g><g fill="#efe7d3" fill-opacity="1"><g transform="translate(215.434137, 187.161535)"><g><path d="M 12.546875 -23.1875 C 15.941406 -23.1875 18.546875 -22.265625 20.359375 -20.421875 C 22.171875 -18.585938 23.078125 -15.9375 23.078125 -12.46875 C 23.078125 -8.363281 22.019531 -5.203125 19.90625 -2.984375 C 17.800781 -0.773438 14.773438 0.328125 10.828125 0.328125 C 8.359375 0.328125 5.460938 0.21875 2.140625 0 L 2.5 -6.765625 L 2.140625 -23.046875 Z M 12.1875 -4.984375 C 13.300781 -4.984375 14.148438 -5.425781 14.734375 -6.3125 C 15.316406 -7.207031 15.609375 -8.675781 15.609375 -10.71875 C 15.609375 -12.457031 15.488281 -13.820312 15.25 -14.8125 C 15.007812 -15.8125 14.628906 -16.53125 14.109375 -16.96875 C 13.585938 -17.414062 12.863281 -17.640625 11.9375 -17.640625 C 11.03125 -17.640625 10.140625 -17.585938 9.265625 -17.484375 L 9.015625 -7.484375 L 9.078125 -5.265625 C 10.503906 -5.078125 11.539062 -4.984375 12.1875 -4.984375 Z M 12.1875 -4.984375 "/></g></g></g><g fill="#efe7d3" fill-opacity="1"><g transform="translate(240.90659, 187.161535)"><g><path d="M 17.3125 -9.078125 C 19.019531 -6.421875 20.726562 -3.953125 22.4375 -1.671875 L 22.34375 -0.890625 C 19.914062 -0.148438 17.523438 0.285156 15.171875 0.421875 L 14.5 -0.140625 L 14.078125 -1.03125 C 13.878906 -1.414062 13.492188 -2.21875 12.921875 -3.4375 C 12.359375 -4.65625 11.863281 -5.800781 11.4375 -6.875 L 9.046875 -6.875 L 9.296875 0 L 2.140625 0 L 2.5 -6.765625 L 2.140625 -23.046875 L 13.078125 -23.078125 C 15.660156 -23.078125 17.648438 -22.46875 19.046875 -21.25 C 20.453125 -20.03125 21.15625 -18.265625 21.15625 -15.953125 C 21.15625 -14.597656 20.816406 -13.328125 20.140625 -12.140625 C 19.460938 -10.953125 18.519531 -9.929688 17.3125 -9.078125 Z M 13.640625 -15.25 C 13.640625 -16.195312 13.394531 -16.898438 12.90625 -17.359375 C 12.425781 -17.828125 11.640625 -18.085938 10.546875 -18.140625 L 9.265625 -18.03125 L 9.125 -12.078125 L 11.71875 -11.9375 C 12.382812 -12.238281 12.867188 -12.648438 13.171875 -13.171875 C 13.484375 -13.703125 13.640625 -14.394531 13.640625 -15.25 Z M 13.640625 -15.25 "/></g></g></g><g fill="#efe7d3" fill-opacity="1"><g transform="translate(265.167788, 187.161535)"><g><path d="M 9.015625 -7.484375 L 9.296875 0 L 2.140625 0 L 2.5 -6.765625 L 2.140625 -23.046875 L 9.40625 -23.046875 Z M 9.015625 -7.484375 "/></g></g></g><g fill="#efe7d3" fill-opacity="1"><g transform="translate(278.599009, 187.161535)"><g><path d="M 15.0625 0 L 6.453125 0 L 0.140625 -23.046875 L 7.375 -23.046875 L 8.015625 -19.234375 L 10.6875 -6.375 L 11.109375 -6.375 L 14.390625 -18.8125 L 15.0625 -23.046875 L 22.046875 -23.046875 Z M 15.0625 0 "/></g></g></g><g fill="#efe7d3" fill-opacity="1"><g transform="translate(302.2902, 187.161535)"><g><path d="M 18.421875 -5.703125 L 18.8125 -5.203125 L 18.375 0 L 2.140625 0 L 2.5 -6.765625 L 2.140625 -23.046875 L 18.671875 -23.046875 L 19.0625 -22.546875 L 18.59375 -17.34375 L 12.9375 -17.5625 L 9.265625 -17.5625 L 9.1875 -14.328125 L 12.71875 -14.328125 L 16.421875 -14.421875 L 16.8125 -13.921875 L 16.390625 -8.734375 L 12.25 -8.828125 L 9.046875 -8.828125 L 9.015625 -7.484375 L 9.078125 -5.484375 L 12.5 -5.484375 Z M 18.421875 -5.703125 "/></g></g></g><g fill="#b7783e" fill-opacity="1"><g transform="translate(100.399165, 218.047764)"><g><path d="M 0.367188 0 L 4.09375 0 L 4.738281 -1.769531 L 10.1875 -1.769531 L 10.855469 0 L 14.554688 0 L 7.632812 -17.039062 L 7.289062 -17.039062 Z M 5.933594 -4.851562 L 7.472656 -9.128906 L 8.96875 -4.851562 Z M 5.933594 -4.851562 "/></g></g></g><g fill="#b7783e" fill-opacity="1"><g transform="translate(121.163109, 218.047764)"><g><path d="M 6.738281 -16.441406 L 1.839844 -16.441406 L 1.839844 0 L 6.738281 0 C 17.683594 0 17.683594 -16.441406 6.738281 -16.441406 Z M 6.738281 -13.152344 C 13.128906 -13.152344 13.128906 -3.289062 6.738281 -3.289062 L 5.128906 -3.289062 L 5.128906 -13.152344 Z M 6.738281 -13.152344 "/></g></g></g><g fill="#b7783e" fill-opacity="1"><g transform="translate(143.099661, 218.047764)"><g><path d="M 6.945312 0.34375 L 7.679688 0.34375 L 14.488281 -16.441406 L 10.691406 -16.441406 L 8.484375 -10.855469 L 7.3125 -7.566406 L 6.117188 -10.96875 L 3.933594 -16.441406 L 0.136719 -16.441406 Z M 6.945312 0.34375 "/></g></g></g><g fill="#b7783e" fill-opacity="1"><g transform="translate(163.495738, 218.047764)"><g><path d="M 10.347656 0 L 10.347656 -3.289062 L 5.128906 -3.289062 L 5.128906 -6.578125 L 9.449219 -6.578125 L 9.449219 -9.863281 L 5.128906 -9.863281 L 5.128906 -13.152344 L 10.070312 -13.152344 L 10.070312 -16.441406 L 1.839844 -16.441406 L 1.839844 0 Z M 10.347656 0 "/></g></g></g><g fill="#b7783e" fill-opacity="1"><g transform="translate(180.833833, 218.047764)"><g><path d="M 5.128906 -8.945312 L 13.453125 0.34375 L 14.324219 0.34375 L 14.324219 -16.417969 L 11.015625 -16.417969 L 11.015625 -7.128906 L 2.714844 -16.785156 L 1.839844 -16.785156 L 1.839844 0 L 5.128906 0 Z M 5.128906 -8.945312 "/></g></g></g><g fill="#b7783e" fill-opacity="1"><g transform="translate(202.770382, 218.047764)"><g><path d="M 7.839844 0 L 7.839844 -13.152344 L 11.933594 -13.152344 L 11.933594 -16.417969 L 0.460938 -16.417969 L 0.460938 -13.152344 L 4.554688 -13.152344 L 4.554688 0 Z M 7.839844 0 "/></g></g></g><g fill="#b7783e" fill-opacity="1"><g transform="translate(221.097144, 218.047764)"><g><path d="M 13.636719 -5.726562 L 13.636719 -16.441406 L 10.371094 -16.441406 L 10.371094 -5.75 C 10.371094 -2.300781 5.035156 -2.300781 5.035156 -5.75 L 5.035156 -16.441406 L 1.746094 -16.441406 L 1.746094 -5.726562 C 1.746094 2.09375 13.636719 2.09375 13.636719 -5.726562 Z M 13.636719 -5.726562 "/></g></g></g><g fill="#b7783e" fill-opacity="1"><g transform="translate(242.274949, 218.047764)"><g><path d="M 10.027344 0 L 13.75 0 L 9.933594 -6.785156 C 14.761719 -8.1875 14.1875 -16.441406 8.324219 -16.441406 L 1.839844 -16.441406 L 1.839844 0 L 5.128906 0 L 5.128906 -6.277344 L 6.714844 -6.277344 Z M 5.128906 -9.472656 L 5.128906 -13.152344 L 8.023438 -13.152344 C 10.253906 -13.152344 10.253906 -9.472656 8.023438 -9.472656 Z M 5.128906 -9.472656 "/></g></g></g><g fill="#b7783e" fill-opacity="1"><g transform="translate(262.119198, 218.047764)"><g><path d="M 10.347656 0 L 10.347656 -3.289062 L 5.128906 -3.289062 L 5.128906 -6.578125 L 9.449219 -6.578125 L 9.449219 -9.863281 L 5.128906 -9.863281 L 5.128906 -13.152344 L 10.070312 -13.152344 L 10.070312 -16.441406 L 1.839844 -16.441406 L 1.839844 0 Z M 10.347656 0 "/></g></g></g><path stroke-linecap="butt" transform="matrix(0.75, 0, 0, 0.75, 40.578909, 203.522696)" fill="none" stroke-linejoin="miter" d="M -0.00104538 2.500989 L 62.644792 2.500989 " stroke="#efe7d3" stroke-width="5" stroke-opacity="1" stroke-miterlimit="4"/><path stroke-linecap="butt" transform="matrix(0.75, 0, 0, 0.75, 40.578909, 212.57568)" fill="none" stroke-linejoin="miter" d="M -0.00104538 2.498051 L 62.644792 2.498051 " stroke="#efe7d3" stroke-width="5" stroke-opacity="1" stroke-miterlimit="4"/><path stroke-linecap="butt" transform="matrix(0.75, 0, 0, 0.75, 286.571088, 203.522696)" fill="none" stroke-linejoin="miter" d="M -0.00103411 2.500989 L 62.644803 2.500989 " stroke="#efe7d3" stroke-width="5" stroke-opacity="1" stroke-miterlimit="4"/><path stroke-linecap="butt" transform="matrix(0.75, 0, 0, 0.75, 286.571088, 212.57568)" fill="none" stroke-linejoin="miter" d="M -0.00103411 2.498051 L 62.644803 2.498051 " stroke="#efe7d3" stroke-width="5" stroke-opacity="1" stroke-miterlimit="4"/><g fill="#efe7d3" fill-opacity="1"><g transform="translate(127.964746, 250.000222)"><g><path d="M 9.628906 -9.882812 L 9.9375 -12.527344 C 9.160156 -12.871094 8.296875 -13.03125 7.398438 -13.03125 C -1.3125 -13.03125 -1.332031 0.0351562 7.398438 0.0351562 C 8.296875 0.0351562 9.433594 -0.179688 10.222656 -0.503906 L 9.882812 -3.167969 C 9.394531 -2.914062 8.515625 -2.59375 7.398438 -2.59375 C 2.304688 -2.59375 2.304688 -10.441406 7.398438 -10.441406 C 8.515625 -10.441406 9.144531 -10.132812 9.628906 -9.882812 Z M 9.628906 -9.882812 "/></g></g></g><g fill="#efe7d3" fill-opacity="1"><g transform="translate(140.600709, 250.000222)"><g><path d="M 0.289062 0 L 3.203125 0 L 3.707031 -1.386719 L 7.972656 -1.386719 L 8.496094 0 L 11.394531 0 L 5.976562 -13.339844 L 5.707031 -13.339844 Z M 4.644531 -3.796875 L 5.851562 -7.144531 L 7.019531 -3.796875 Z M 4.644531 -3.796875 "/></g></g></g><g fill="#efe7d3" fill-opacity="1"><g transform="translate(154.154672, 250.000222)"><g><path d="M 7.847656 0 L 10.765625 0 L 7.777344 -5.308594 C 11.554688 -6.40625 11.105469 -12.871094 6.515625 -12.871094 L 1.441406 -12.871094 L 1.441406 0 L 4.015625 0 L 4.015625 -4.914062 L 5.257812 -4.914062 Z M 4.015625 -7.414062 L 4.015625 -10.296875 L 6.28125 -10.296875 C 8.027344 -10.296875 8.027344 -7.414062 6.28125 -7.414062 Z M 4.015625 -7.414062 "/></g></g></g><g fill="#efe7d3" fill-opacity="1"><g transform="translate(173.900624, 250.000222)"><g><path d="M 7.847656 0 L 10.765625 0 L 7.777344 -5.308594 C 11.554688 -6.40625 11.105469 -12.871094 6.515625 -12.871094 L 1.441406 -12.871094 L 1.441406 0 L 4.015625 0 L 4.015625 -4.914062 L 5.257812 -4.914062 Z M 4.015625 -7.414062 L 4.015625 -10.296875 L 6.28125 -10.296875 C 8.027344 -10.296875 8.027344 -7.414062 6.28125 -7.414062 Z M 4.015625 -7.414062 "/></g></g></g><g fill="#efe7d3" fill-opacity="1"><g transform="translate(186.734594, 250.000222)"><g><path d="M 8.101562 0 L 8.101562 -2.574219 L 4.015625 -2.574219 L 4.015625 -5.148438 L 7.398438 -5.148438 L 7.398438 -7.722656 L 4.015625 -7.722656 L 4.015625 -10.296875 L 7.882812 -10.296875 L 7.882812 -12.871094 L 1.441406 -12.871094 L 1.441406 0 Z M 8.101562 0 "/></g></g></g><g fill="#efe7d3" fill-opacity="1"><g transform="translate(197.606567, 250.000222)"><g><path d="M 4.015625 -7.003906 L 10.53125 0.269531 L 11.214844 0.269531 L 11.214844 -12.851562 L 8.621094 -12.851562 L 8.621094 -5.578125 L 2.125 -13.140625 L 1.441406 -13.140625 L 1.441406 0 L 4.015625 0 Z M 4.015625 -7.003906 "/></g></g></g><g fill="#efe7d3" fill-opacity="1"><g transform="translate(212.07853, 250.000222)"><g><path d="M 6.136719 0 L 6.136719 -10.296875 L 9.34375 -10.296875 L 9.34375 -12.851562 L 0.359375 -12.851562 L 0.359375 -10.296875 L 3.5625 -10.296875 L 3.5625 0 Z M 6.136719 0 "/></g></g></g><g fill="#efe7d3" fill-opacity="1"><g transform="translate(223.7245, 250.000222)"><g><path d="M 0.289062 0 L 3.203125 0 L 3.707031 -1.386719 L 7.972656 -1.386719 L 8.496094 0 L 11.394531 0 L 5.976562 -13.339844 L 5.707031 -13.339844 Z M 4.644531 -3.796875 L 5.851562 -7.144531 L 7.019531 -3.796875 Z M 4.644531 -3.796875 "/></g></g></g><g fill="#efe7d3" fill-opacity="1"><g transform="translate(237.278464, 250.000222)"><g><path d="M 1.441406 -12.871094 L 1.441406 0 L 8.101562 0 L 8.101562 -2.574219 L 4.015625 -2.574219 L 4.015625 -12.871094 Z M 1.441406 -12.871094 "/></g></g></g><g fill="#04343f" fill-opacity="1"><g transform="translate(126.988135, 279.600186)"><g><path d="M 3.359375 -12.652344 L -0.414062 -1.808594 C -0.496094 -1.566406 -0.527344 -1.359375 -0.527344 -1.152344 C -0.527344 -0.414062 0 0 0.574219 0 C 1.136719 0 1.710938 -0.398438 2 -1.214844 L 5.773438 -12.0625 C 5.855469 -12.300781 5.886719 -12.511719 5.886719 -12.71875 C 5.886719 -13.453125 5.359375 -13.871094 4.785156 -13.871094 C 4.222656 -13.871094 3.597656 -13.484375 3.359375 -12.652344 Z M 3.359375 -12.652344 "/></g></g></g><g fill="#04343f" fill-opacity="1"><g transform="translate(131.499135, 279.600186)"><g><path d="M 8.863281 -4.75 C 8.589844 -4 8.191406 -3.566406 7.597656 -3.566406 C 7.070312 -3.566406 6.800781 -3.902344 6.800781 -4.335938 C 6.800781 -4.464844 6.832031 -4.625 6.878906 -4.765625 C 7.742188 -6.335938 8.300781 -7.183594 8.300781 -8.0625 C 8.300781 -8.847656 7.855469 -9.390625 6.976562 -9.390625 C 5.359375 -9.390625 4.207031 -7.117188 4.207031 -5.421875 C 4.207031 -5.039062 4.269531 -4.6875 4.398438 -4.367188 L 3.519531 -3.039062 C 3.28125 -2.6875 2.734375 -2.03125 2.511719 -2.03125 C 2.464844 -2.03125 2.429688 -2.078125 2.429688 -2.175781 C 2.429688 -2.320312 2.449219 -2.464844 2.496094 -2.640625 L 3.710938 -7.773438 C 3.757812 -7.949219 3.777344 -8.109375 3.777344 -8.253906 C 3.777344 -9.023438 3.246094 -9.390625 2.6875 -9.390625 C 2.113281 -9.390625 1.535156 -9.023438 1.375 -8.335938 L 0.207031 -3.121094 C 0.144531 -2.832031 0.113281 -2.542969 0.113281 -2.289062 C 0.113281 -0.863281 1.023438 0 2.273438 0 C 3.40625 0 3.933594 -0.527344 4.992188 -1.742188 L 5.582031 -2.464844 C 6.03125 -1.9375 6.734375 -1.632812 7.582031 -1.632812 C 9.132812 -1.632812 10.300781 -2.671875 10.796875 -4.320312 C 10.832031 -4.414062 10.832031 -4.496094 10.832031 -4.574219 C 10.832031 -5.101562 10.335938 -5.421875 9.839844 -5.421875 C 9.421875 -5.421875 9.023438 -5.214844 8.863281 -4.75 Z M 8.863281 -4.75 "/></g></g></g><g fill="#04343f" fill-opacity="1"><g transform="translate(140.121139, 279.600186)"><g><path d="M 10.03125 -5.40625 C 9.582031 -5.40625 9.085938 -5.136719 8.894531 -4.527344 C 8.269531 -2.558594 7.261719 -1.902344 6.542969 -1.902344 C 6.269531 -1.902344 6.109375 -2.046875 6.109375 -2.304688 C 6.109375 -2.429688 6.144531 -2.589844 6.191406 -2.765625 L 7.984375 -7.949219 C 8.046875 -8.144531 8.078125 -8.320312 8.078125 -8.480469 C 8.078125 -9.183594 7.503906 -9.550781 6.910156 -9.550781 C 6.464844 -9.550781 6 -9.34375 5.742188 -8.941406 C 5.40625 -9.152344 4.785156 -9.390625 3.96875 -9.390625 C 2.910156 -9.390625 1.757812 -8.816406 1.328125 -7.582031 L -0.175781 -3.28125 C -0.273438 -2.992188 -0.335938 -2.703125 -0.335938 -2.414062 C -0.335938 -1.085938 0.734375 0 2.144531 0 C 2.894531 0 3.664062 -0.335938 4.253906 -0.863281 C 4.765625 -0.128906 5.902344 0 6.382812 0 C 7.710938 0 9.488281 -0.671875 10.511719 -3.261719 C 10.734375 -3.886719 10.910156 -4.289062 10.910156 -4.574219 C 10.910156 -5.121094 10.496094 -5.40625 10.03125 -5.40625 Z M 4.75 -5.566406 L 3.984375 -3.183594 C 3.648438 -2.144531 3.039062 -1.902344 2.703125 -1.902344 C 2.351562 -1.902344 2.175781 -2.128906 2.175781 -2.496094 C 2.175781 -2.703125 2.222656 -2.894531 2.273438 -3.039062 L 3.296875 -6.253906 C 3.597656 -7.230469 4.046875 -7.359375 4.304688 -7.359375 C 4.605469 -7.359375 4.941406 -7.054688 4.941406 -6.511719 C 4.941406 -6.269531 4.878906 -5.96875 4.75 -5.566406 Z M 4.75 -5.566406 "/></g></g></g><g fill="#04343f" fill-opacity="1"><g transform="translate(148.839125, 279.600186)"><g><path d="M 8.925781 -4.605469 C 8.222656 -2.6875 7.34375 -1.902344 6.589844 -1.902344 C 6.304688 -1.902344 6.144531 -2.046875 6.144531 -2.320312 C 6.144531 -2.429688 6.175781 -2.558594 6.222656 -2.71875 L 7.472656 -6.269531 C 7.582031 -6.589844 7.648438 -6.878906 7.648438 -7.152344 C 7.648438 -8.429688 6.558594 -9.390625 5.277344 -9.390625 C 4.65625 -9.390625 4.160156 -9.246094 3.742188 -8.941406 C 3.648438 -9.230469 3.246094 -9.390625 2.816406 -9.390625 C 2.367188 -9.390625 1.9375 -9.183594 1.777344 -8.734375 L -0.894531 -1.265625 C -0.945312 -1.121094 -0.960938 -0.992188 -0.960938 -0.863281 C -0.960938 -0.273438 -0.496094 0.03125 0.015625 0.03125 C 0.574219 0.03125 1.214844 -0.320312 1.457031 -1.039062 C 2.015625 -2.589844 2.785156 -4.785156 3.328125 -6.320312 C 3.757812 -7.117188 4.320312 -7.503906 4.765625 -7.503906 C 5.054688 -7.503906 5.261719 -7.3125 5.261719 -7.007812 C 5.261719 -6.894531 5.230469 -6.75 5.183594 -6.605469 L 4.015625 -3.3125 C 3.886719 -2.945312 3.808594 -2.589844 3.808594 -2.253906 C 3.808594 -0.785156 5.023438 0 6.382812 0 C 8.015625 0 9.757812 -1.105469 10.863281 -4.222656 C 10.910156 -4.351562 10.941406 -4.480469 10.941406 -4.589844 C 10.941406 -5.101562 10.476562 -5.375 10 -5.375 C 9.566406 -5.375 9.085938 -5.136719 8.925781 -4.605469 Z M 8.925781 -4.605469 "/></g></g></g><g fill="#04343f" fill-opacity="1"><g transform="translate(157.55711, 279.600186)"><g><path d="M 6.765625 -3.34375 C 6.765625 -3.328125 6.765625 -3.582031 6.703125 -3.886719 C 6.816406 -3.96875 6.925781 -4.09375 7.023438 -4.238281 C 7.292969 -4.640625 7.773438 -6.03125 7.773438 -6.671875 C 7.773438 -8.300781 6.429688 -9.390625 4.703125 -9.390625 C 3.199219 -9.390625 1.777344 -8.558594 1.265625 -7.136719 L 0.0976562 -3.839844 C -0.046875 -3.441406 -0.113281 -3.039062 -0.113281 -2.6875 C -0.113281 -1.007812 1.328125 0 2.960938 0 C 4.207031 0 5.34375 -0.398438 6.015625 -1.550781 C 6.304688 -1.472656 6.640625 -1.421875 6.976562 -1.421875 C 8.863281 -1.421875 10.351562 -2.765625 10.894531 -4.449219 C 10.941406 -4.625 10.972656 -4.785156 10.972656 -4.925781 C 10.972656 -5.519531 10.542969 -5.855469 10.078125 -5.855469 C 9.648438 -5.855469 9.199219 -5.597656 9.023438 -5.007812 C 8.671875 -4.015625 7.933594 -3.328125 6.992188 -3.328125 C 6.925781 -3.328125 6.832031 -3.328125 6.765625 -3.34375 Z M 5.277344 -5.808594 C 5.230469 -5.664062 5.183594 -5.535156 5.167969 -5.40625 C 4.289062 -5.503906 3.503906 -4.785156 3.503906 -3.824219 C 3.519531 -3.28125 3.792969 -2.992188 4.09375 -2.734375 C 3.886719 -2.175781 3.421875 -1.902344 2.925781 -1.902344 C 2.304688 -1.902344 2.144531 -2.289062 2.144531 -2.671875 C 2.144531 -2.976562 2.222656 -3.261719 2.289062 -3.421875 L 3.421875 -6.671875 C 3.617188 -7.199219 4.175781 -7.503906 4.671875 -7.503906 C 5.167969 -7.503906 5.488281 -7.167969 5.488281 -6.800781 C 5.488281 -6.511719 5.390625 -6.144531 5.277344 -5.808594 Z M 5.277344 -5.808594 "/></g></g></g><g fill="#04343f" fill-opacity="1"><g transform="translate(166.227111, 279.600186)"><g><path d="M 5.949219 -7.40625 L 2.6875 -7.40625 C 1.070312 -7.40625 0.945312 -5.390625 2.09375 -5.390625 L 5.230469 -5.40625 C 6.941406 -5.40625 6.976562 -7.40625 5.949219 -7.40625 Z M 5.949219 -7.40625 "/></g></g></g><g fill="#04343f" fill-opacity="1"><g transform="translate(172.961572, 279.600186)"><g><path d="M 14.734375 -13.566406 L 7.679688 -13.566406 C 6.765625 -13.566406 6.382812 -13.023438 6.382812 -12.511719 C 6.382812 -12.03125 6.734375 -11.566406 7.3125 -11.566406 L 8.269531 -11.566406 L 7.292969 -8.992188 L 6.558594 -8.992188 C 5.695312 -8.992188 5.277344 -8.460938 5.277344 -7.949219 C 5.277344 -7.453125 5.664062 -6.976562 6.429688 -6.976562 L 6.589844 -6.976562 L 5.519531 -4 C 4.976562 -2.496094 4.335938 -2.207031 3.503906 -2.207031 C 2.925781 -2.207031 2.527344 -2.589844 2.382812 -2.976562 C 2.414062 -3.085938 2.429688 -3.199219 2.429688 -3.3125 C 2.429688 -4.046875 1.777344 -4.496094 1.152344 -4.496094 C 0.511719 -4.496094 -0.128906 -4.046875 -0.128906 -3.023438 C -0.128906 -1.503906 1.390625 0 3.488281 0 C 5.136719 0 6.75 -0.75 7.664062 -3.3125 C 8.046875 -4.429688 8.574219 -5.871094 8.972656 -6.992188 L 9.933594 -6.992188 C 10.910156 -6.992188 11.292969 -7.550781 11.292969 -8.078125 C 11.292969 -8.542969 10.992188 -8.992188 10.511719 -8.992188 L 9.679688 -8.992188 L 10.574219 -11.566406 L 14.332031 -11.566406 C 15.230469 -11.597656 15.613281 -12.109375 15.613281 -12.621094 C 15.613281 -13.101562 15.277344 -13.566406 14.734375 -13.566406 Z M 14.734375 -13.566406 "/></g></g></g><g fill="#04343f" fill-opacity="1"><g transform="translate(183.935019, 279.600186)"><g><path d="M 8.109375 -4.640625 C 7.503906 -3.070312 6.6875 -1.902344 6.015625 -1.902344 C 5.792969 -1.902344 5.679688 -2.113281 5.679688 -2.335938 C 5.679688 -2.429688 5.695312 -2.558594 5.742188 -2.6875 L 6.6875 -5.3125 C 6.78125 -5.632812 6.847656 -5.917969 6.847656 -6.191406 C 6.847656 -7.710938 4.925781 -8.351562 4.03125 -8.621094 C 4.078125 -8.75 4.09375 -8.894531 4.09375 -9.023438 C 4.09375 -9.757812 3.441406 -10.382812 2.71875 -10.382812 C 1.777344 -10.382812 1.214844 -9.550781 1.214844 -8.636719 C 1.214844 -8.238281 1.359375 -7.824219 1.617188 -7.503906 L 0.449219 -4.351562 C 0.414062 -4.222656 0.398438 -4.09375 0.398438 -4 C 0.398438 -3.472656 0.816406 -3.199219 1.265625 -3.199219 C 1.710938 -3.199219 2.175781 -3.457031 2.367188 -3.96875 L 3.261719 -6.367188 C 3.710938 -6.222656 4.304688 -6.109375 4.304688 -5.566406 C 4.304688 -5.488281 4.289062 -5.390625 4.253906 -5.277344 L 3.550781 -3.328125 C 3.421875 -2.960938 3.359375 -2.625 3.359375 -2.304688 C 3.359375 -0.910156 4.464844 0 5.792969 0 C 7.535156 0 9.117188 -1.550781 10.0625 -4.253906 C 10.09375 -4.351562 10.109375 -4.429688 10.109375 -4.511719 C 10.109375 -4.992188 9.582031 -5.3125 9.070312 -5.3125 C 8.65625 -5.3125 8.253906 -5.121094 8.109375 -4.640625 Z M 8.109375 -4.640625 "/></g></g></g><g fill="#04343f" fill-opacity="1"><g transform="translate(191.8212, 279.600186)"><g><path d="M 10.03125 -5.40625 C 9.582031 -5.40625 9.085938 -5.136719 8.894531 -4.527344 C 8.269531 -2.558594 7.261719 -1.902344 6.542969 -1.902344 C 6.269531 -1.902344 6.109375 -2.046875 6.109375 -2.304688 C 6.109375 -2.429688 6.144531 -2.589844 6.191406 -2.765625 L 7.984375 -7.949219 C 8.046875 -8.144531 8.078125 -8.320312 8.078125 -8.480469 C 8.078125 -9.183594 7.503906 -9.550781 6.910156 -9.550781 C 6.464844 -9.550781 6 -9.34375 5.742188 -8.941406 C 5.40625 -9.152344 4.785156 -9.390625 3.96875 -9.390625 C 2.910156 -9.390625 1.757812 -8.816406 1.328125 -7.582031 L -0.175781 -3.28125 C -0.273438 -2.992188 -0.335938 -2.703125 -0.335938 -2.414062 C -0.335938 -1.085938 0.734375 0 2.144531 0 C 2.894531 0 3.664062 -0.335938 4.253906 -0.863281 C 4.765625 -0.128906 5.902344 0 6.382812 0 C 7.710938 0 9.488281 -0.671875 10.511719 -3.261719 C 10.734375 -3.886719 10.910156 -4.289062 10.910156 -4.574219 C 10.910156 -5.121094 10.496094 -5.40625 10.03125 -5.40625 Z M 4.75 -5.566406 L 3.984375 -3.183594 C 3.648438 -2.144531 3.039062 -1.902344 2.703125 -1.902344 C 2.351562 -1.902344 2.175781 -2.128906 2.175781 -2.496094 C 2.175781 -2.703125 2.222656 -2.894531 2.273438 -3.039062 L 3.296875 -6.253906 C 3.597656 -7.230469 4.046875 -7.359375 4.304688 -7.359375 C 4.605469 -7.359375 4.941406 -7.054688 4.941406 -6.511719 C 4.941406 -6.269531 4.878906 -5.96875 4.75 -5.566406 Z M 4.75 -5.566406 "/></g></g></g><g fill="#04343f" fill-opacity="1"><g transform="translate(200.539182, 279.600186)"><g><path d="M 8.925781 -4.605469 C 8.222656 -2.6875 7.34375 -1.902344 6.589844 -1.902344 C 6.304688 -1.902344 6.144531 -2.046875 6.144531 -2.320312 C 6.144531 -2.429688 6.175781 -2.558594 6.222656 -2.71875 L 7.472656 -6.269531 C 7.582031 -6.589844 7.648438 -6.878906 7.648438 -7.152344 C 7.648438 -8.429688 6.558594 -9.390625 5.277344 -9.390625 C 4.65625 -9.390625 4.160156 -9.246094 3.742188 -8.941406 C 3.648438 -9.230469 3.246094 -9.390625 2.816406 -9.390625 C 2.367188 -9.390625 1.9375 -9.183594 1.777344 -8.734375 L -0.894531 -1.265625 C -0.945312 -1.121094 -0.960938 -0.992188 -0.960938 -0.863281 C -0.960938 -0.273438 -0.496094 0.03125 0.015625 0.03125 C 0.574219 0.03125 1.214844 -0.320312 1.457031 -1.039062 C 2.015625 -2.589844 2.785156 -4.785156 3.328125 -6.320312 C 3.757812 -7.117188 4.320312 -7.503906 4.765625 -7.503906 C 5.054688 -7.503906 5.261719 -7.3125 5.261719 -7.007812 C 5.261719 -6.894531 5.230469 -6.75 5.183594 -6.605469 L 4.015625 -3.3125 C 3.886719 -2.945312 3.808594 -2.589844 3.808594 -2.253906 C 3.808594 -0.785156 5.023438 0 6.382812 0 C 8.015625 0 9.757812 -1.105469 10.863281 -4.222656 C 10.910156 -4.351562 10.941406 -4.480469 10.941406 -4.589844 C 10.941406 -5.101562 10.476562 -5.375 10 -5.375 C 9.566406 -5.375 9.085938 -5.136719 8.925781 -4.605469 Z M 8.925781 -4.605469 "/></g></g></g><g fill="#04343f" fill-opacity="1"><g transform="translate(209.257165, 279.600186)"><g><path d="M 8.863281 -4.464844 C 8.300781 -2.847656 7.488281 -1.902344 6.6875 -1.902344 C 6.464844 -1.902344 6.382812 -2.03125 6.382812 -2.175781 C 6.382812 -2.304688 6.414062 -2.464844 6.464844 -2.609375 C 6.703125 -3.359375 6.78125 -3.550781 6.78125 -3.953125 C 6.78125 -4.335938 6.6875 -4.671875 6.464844 -4.910156 C 6.910156 -5.167969 7.328125 -5.566406 7.566406 -6.207031 C 7.664062 -6.480469 7.726562 -6.78125 7.726562 -7.070312 C 7.726562 -8.300781 6.75 -9.390625 5.359375 -9.390625 C 5.054688 -9.390625 4.816406 -9.375 4.527344 -9.277344 L 5.519531 -12.140625 C 5.597656 -12.367188 5.664062 -12.574219 5.664062 -12.765625 C 5.664062 -13.46875 5.136719 -13.886719 4.574219 -13.886719 C 4.046875 -13.886719 3.597656 -13.535156 3.328125 -12.765625 L -0.671875 -1.214844 C -0.703125 -1.085938 -0.71875 -0.992188 -0.71875 -0.878906 C -0.71875 -0.304688 -0.222656 0 0.320312 0 C 0.894531 0 1.503906 -0.335938 1.710938 -0.976562 L 2.6875 -4.03125 C 3.023438 -3.710938 3.359375 -3.617188 3.648438 -3.617188 C 3.96875 -3.617188 4.222656 -3.726562 4.367188 -3.792969 C 4.480469 -3.839844 4.320312 -3.503906 4.253906 -3.34375 C 4.09375 -2.910156 4.015625 -2.480469 4.015625 -2.078125 C 4.015625 -0.847656 4.785156 0 6.351562 0 C 8.511719 0 10.03125 -1.664062 10.832031 -4.144531 C 10.863281 -4.238281 10.878906 -4.320312 10.878906 -4.398438 C 10.878906 -4.878906 10.382812 -5.167969 9.886719 -5.167969 C 9.453125 -5.167969 9.007812 -4.960938 8.863281 -4.464844 Z M 3.3125 -5.808594 L 3.597656 -6.621094 C 3.886719 -7.199219 4.382812 -7.503906 4.847656 -7.503906 C 5.246094 -7.503906 5.550781 -7.292969 5.550781 -6.941406 C 5.550781 -6.847656 5.535156 -6.75 5.488281 -6.640625 C 5.34375 -6.269531 5.007812 -6.015625 4.625 -5.902344 C 4.429688 -5.933594 4.253906 -5.96875 4.078125 -5.96875 C 3.757812 -5.96875 3.488281 -5.902344 3.3125 -5.808594 Z M 3.3125 -5.808594 "/></g></g></g><g fill="#04343f" fill-opacity="1"><g transform="translate(217.959149, 279.600186)"><g><path d="M 4.304688 -10.863281 C 5.023438 -10.863281 5.613281 -11.453125 5.613281 -12.191406 C 5.613281 -12.910156 5.023438 -13.484375 4.304688 -13.484375 C 3.582031 -13.484375 2.992188 -12.910156 2.992188 -12.191406 C 2.992188 -11.453125 3.582031 -10.863281 4.304688 -10.863281 Z M 2.144531 -2.703125 L 3.902344 -7.726562 C 3.96875 -7.933594 4.046875 -8.160156 4.046875 -8.320312 C 4.046875 -9.023438 3.519531 -9.390625 2.976562 -9.390625 C 2.480469 -9.390625 1.953125 -9.039062 1.695312 -8.285156 C 1.183594 -6.78125 0.511719 -4.878906 0 -3.390625 C -0.0976562 -3.070312 -0.222656 -2.640625 -0.222656 -2.367188 C -0.222656 -0.863281 1.023438 0 2.496094 0 C 4.0625 0 5.792969 -0.960938 6.910156 -4.269531 C 6.941406 -4.367188 6.957031 -4.464844 6.957031 -4.558594 C 6.957031 -5.054688 6.480469 -5.359375 6 -5.359375 C 5.566406 -5.359375 5.136719 -5.136719 4.941406 -4.640625 C 4.191406 -2.558594 3.34375 -1.902344 2.703125 -1.902344 C 2.335938 -1.902344 2.09375 -2.144531 2.09375 -2.449219 C 2.09375 -2.527344 2.113281 -2.609375 2.144531 -2.703125 Z M 2.144531 -2.703125 "/></g></g></g><g fill="#04343f" fill-opacity="1"><g transform="translate(222.694084, 279.600186)"><g><path d="M 8.863281 -4.75 C 8.589844 -4 8.191406 -3.566406 7.597656 -3.566406 C 7.070312 -3.566406 6.800781 -3.902344 6.800781 -4.335938 C 6.800781 -4.464844 6.832031 -4.625 6.878906 -4.765625 C 7.742188 -6.335938 8.300781 -7.183594 8.300781 -8.0625 C 8.300781 -8.847656 7.855469 -9.390625 6.976562 -9.390625 C 5.359375 -9.390625 4.207031 -7.117188 4.207031 -5.421875 C 4.207031 -5.039062 4.269531 -4.6875 4.398438 -4.367188 L 3.519531 -3.039062 C 3.28125 -2.6875 2.734375 -2.03125 2.511719 -2.03125 C 2.464844 -2.03125 2.429688 -2.078125 2.429688 -2.175781 C 2.429688 -2.320312 2.449219 -2.464844 2.496094 -2.640625 L 3.710938 -7.773438 C 3.757812 -7.949219 3.777344 -8.109375 3.777344 -8.253906 C 3.777344 -9.023438 3.246094 -9.390625 2.6875 -9.390625 C 2.113281 -9.390625 1.535156 -9.023438 1.375 -8.335938 L 0.207031 -3.121094 C 0.144531 -2.832031 0.113281 -2.542969 0.113281 -2.289062 C 0.113281 -0.863281 1.023438 0 2.273438 0 C 3.40625 0 3.933594 -0.527344 4.992188 -1.742188 L 5.582031 -2.464844 C 6.03125 -1.9375 6.734375 -1.632812 7.582031 -1.632812 C 9.132812 -1.632812 10.300781 -2.671875 10.796875 -4.320312 C 10.832031 -4.414062 10.832031 -4.496094 10.832031 -4.574219 C 10.832031 -5.101562 10.335938 -5.421875 9.839844 -5.421875 C 9.421875 -5.421875 9.023438 -5.214844 8.863281 -4.75 Z M 8.863281 -4.75 "/></g></g></g><g fill="#04343f" fill-opacity="1"><g transform="translate(231.316086, 279.600186)"><g><path d="M 8.496094 -4.527344 C 8.109375 -3.582031 7.550781 -2.925781 6.816406 -2.496094 C 6.847656 -2.703125 6.878906 -2.894531 6.878906 -3.101562 C 6.878906 -4.03125 6.382812 -4.910156 5.933594 -5.664062 C 5.613281 -6.207031 5.296875 -6.75 5.230469 -7.246094 C 5.679688 -7.4375 6.03125 -7.949219 6.03125 -8.429688 C 6.03125 -9.117188 5.503906 -9.757812 4.703125 -9.757812 C 4.09375 -9.757812 3.488281 -9.453125 3.183594 -8.832031 C 2.558594 -7.613281 1.886719 -6.382812 1.246094 -5.183594 C 0.175781 -4.910156 -0.351562 -3.695312 -0.351562 -2.671875 C -0.351562 -1.105469 1.214844 0.113281 4.046875 0.113281 C 6.832031 0.113281 9.328125 -0.945312 10.445312 -4.175781 C 10.476562 -4.238281 10.476562 -4.320312 10.476562 -4.382812 C 10.476562 -4.847656 9.949219 -5.183594 9.4375 -5.183594 C 9.054688 -5.183594 8.671875 -4.992188 8.496094 -4.527344 Z M 3.421875 -4.960938 L 3.566406 -5.261719 C 4.046875 -4.6875 4.429688 -3.917969 4.429688 -3.167969 C 4.429688 -2.414062 4.03125 -1.792969 3.183594 -1.757812 C 2.640625 -1.757812 2.160156 -2 1.984375 -2.414062 C 2.113281 -2.382812 2.238281 -2.382812 2.351562 -2.382812 C 3.28125 -2.382812 3.824219 -3.167969 3.824219 -3.953125 C 3.824219 -4.320312 3.695312 -4.6875 3.421875 -4.960938 Z M 3.421875 -4.960938 "/></g></g></g><g fill="#04343f" fill-opacity="1"><g transform="translate(239.618167, 279.600186)"><g><path d="M 8.863281 -4.464844 C 8.300781 -2.847656 7.488281 -1.902344 6.6875 -1.902344 C 6.464844 -1.902344 6.382812 -2.03125 6.382812 -2.175781 C 6.382812 -2.304688 6.414062 -2.464844 6.464844 -2.609375 C 6.703125 -3.359375 6.78125 -3.550781 6.78125 -3.953125 C 6.78125 -4.335938 6.6875 -4.671875 6.464844 -4.910156 C 6.910156 -5.167969 7.328125 -5.566406 7.566406 -6.207031 C 7.664062 -6.480469 7.726562 -6.78125 7.726562 -7.070312 C 7.726562 -8.300781 6.75 -9.390625 5.359375 -9.390625 C 5.054688 -9.390625 4.816406 -9.375 4.527344 -9.277344 L 5.519531 -12.140625 C 5.597656 -12.367188 5.664062 -12.574219 5.664062 -12.765625 C 5.664062 -13.46875 5.136719 -13.886719 4.574219 -13.886719 C 4.046875 -13.886719 3.597656 -13.535156 3.328125 -12.765625 L -0.671875 -1.214844 C -0.703125 -1.085938 -0.71875 -0.992188 -0.71875 -0.878906 C -0.71875 -0.304688 -0.222656 0 0.320312 0 C 0.894531 0 1.503906 -0.335938 1.710938 -0.976562 L 2.6875 -4.03125 C 3.023438 -3.710938 3.359375 -3.617188 3.648438 -3.617188 C 3.96875 -3.617188 4.222656 -3.726562 4.367188 -3.792969 C 4.480469 -3.839844 4.320312 -3.503906 4.253906 -3.34375 C 4.09375 -2.910156 4.015625 -2.480469 4.015625 -2.078125 C 4.015625 -0.847656 4.785156 0 6.351562 0 C 8.511719 0 10.03125 -1.664062 10.832031 -4.144531 C 10.863281 -4.238281 10.878906 -4.320312 10.878906 -4.398438 C 10.878906 -4.878906 10.382812 -5.167969 9.886719 -5.167969 C 9.453125 -5.167969 9.007812 -4.960938 8.863281 -4.464844 Z M 3.3125 -5.808594 L 3.597656 -6.621094 C 3.886719 -7.199219 4.382812 -7.503906 4.847656 -7.503906 C 5.246094 -7.503906 5.550781 -7.292969 5.550781 -6.941406 C 5.550781 -6.847656 5.535156 -6.75 5.488281 -6.640625 C 5.34375 -6.269531 5.007812 -6.015625 4.625 -5.902344 C 4.429688 -5.933594 4.253906 -5.96875 4.078125 -5.96875 C 3.757812 -5.96875 3.488281 -5.902344 3.3125 -5.808594 Z M 3.3125 -5.808594 "/></g></g></g><path stroke-linecap="round" transform="matrix(0.75, -0.000000000000000651, 0.000000000000000651, 0.75, 141.990377, 284.914083)" fill="none" stroke-linejoin="miter" d="M 2.002414 1.999973 L 121.992006 1.999973 " stroke="#04343f" stroke-width="4" stroke-opacity="1" stroke-miterlimit="4"/></svg>